<svg width="240" height="240" viewBox="0 0 240 240" fill="none" xmlns="http://www.w3.org/2000/svg">
  <rect width="240" height="240" rx="28" fill="#EAF6FB"/>
  <rect x="32" y="44" width="80" height="146" rx="10" fill="url(#rexBox)"/>
  <rect x="128" y="40" width="80" height="150" rx="10" fill="url(#kesitasBox)"/>
  <rect x="34" y="46" width="76" height="142" rx="8" stroke="rgba(255,255,255,0.38)" stroke-width="2"/>
  <rect x="130" y="42" width="76" height="146" rx="8" stroke="rgba(255,255,255,0.4)" stroke-width="2"/>
  <path d="M72 58C81 49 94 47 102 56C96 66 85 71 72 72C61 71 53 67 47 59C54 51 64 50 72 58Z" fill="#F5C518"/>
  <path d="M166 54C175 47 188 46 196 53C191 63 181 68 168 70C156 69 148 66 142 57C148 50 158 49 166 54Z" fill="#FFD447"/>
  <path d="M50 117C56 103 74 96 94 99C84 116 81 130 85 145C67 144 54 134 50 117Z" fill="#F9E3C1"/>
  <path d="M141 114C149 101 169 95 189 99C178 115 174 129 178 145C159 144 146 132 141 114Z" fill="#FFE6A8"/>
  <g fill="#F6D8B5">
    <circle cx="164" cy="88" r="10"/>
    <circle cx="185" cy="84" r="10"/>
    <circle cx="171" cy="105" r="10"/>
    <circle cx="192" cy="102" r="10"/>
    <circle cx="154" cy="106" r="9"/>
  </g>
  <g fill="#DFA96D">
    <circle cx="160" cy="86" r="1.8"/>
    <circle cx="167" cy="90" r="1.8"/>
    <circle cx="184" cy="82" r="1.8"/>
    <circle cx="189" cy="88" r="1.8"/>
    <circle cx="172" cy="103" r="1.8"/>
    <circle cx="177" cy="108" r="1.8"/>
    <circle cx="191" cy="100" r="1.8"/>
    <circle cx="154" cy="102" r="1.8"/>
  </g>
  <path d="M46 86C57 76 77 72 103 77L100 98C80 95 61 97 46 86Z" fill="#F7A045"/>
  <text x="72" y="106" text-anchor="middle" fill="white" font-size="34" font-family="Arial, Helvetica, sans-serif" font-weight="700" transform="rotate(-7 72 106)">Rex</text>
  <text x="72" y="126" text-anchor="middle" fill="#FFF3CC" font-size="9" font-family="Arial, Helvetica, sans-serif" font-weight="700" transform="rotate(-7 72 126)">original</text>
  <text x="72" y="136" text-anchor="middle" fill="#FFF3CC" font-size="9" font-family="Arial, Helvetica, sans-serif" font-weight="700" transform="rotate(-7 72 136)">gigante</text>
  <text x="168" y="96" text-anchor="middle" fill="#FFE34D" font-size="16" font-family="Arial, Helvetica, sans-serif" font-weight="700" transform="rotate(-8 168 96)">kesitas</text>
  <text x="168" y="142" text-anchor="middle" fill="white" font-size="11" font-family="Arial, Helvetica, sans-serif" font-style="italic" transform="rotate(-7 168 142)">con queso</text>
  <text x="168" y="155" text-anchor="middle" fill="white" font-size="11" font-family="Arial, Helvetica, sans-serif" font-style="italic" transform="rotate(-7 168 155)">de verdad</text>
  <defs>
    <linearGradient id="rexBox" x1="32" y1="44" x2="112" y2="190" gradientUnits="userSpaceOnUse">
      <stop stop-color="#FF4B45"/>
      <stop offset="1" stop-color="#D91F2A"/>
    </linearGradient>
    <linearGradient id="kesitasBox" x1="128" y1="40" x2="208" y2="190" gradientUnits="userSpaceOnUse">
      <stop stop-color="#2DD2FF"/>
      <stop offset="1" stop-color="#2185F5"/>
    </linearGradient>
  </defs>
</svg>
